<svg xmlns="http://www.w3.org/2000/svg"
     xmlns:xlink="http://www.w3.org/1999/xlink"
     version="1.1"
     viewBox="0 0 100 100"
     enable-background="new 0 0 100 100"
     width="24" height="24"

     xml:space="preserve">
    <path
        style="stroke: #fff;stroke-width: 5"
        d="M7.471,91c-0.222,0-0.436-0.153-0.596-0.309c-0.172-0.167-0.266-0.431-0.259-0.67c0.018-0.658,0.473-16.179,3.707-20.416  c2.008-2.632,5.673-4.561,7.453-5.385L4.967,47.084c-0.187-0.249-0.223-0.583-0.095-0.866C5,45.934,5.271,45.741,5.582,45.715  l11.709-0.972c-2.602-2.011-6.732-5.767-5.9-8.805c1.129-4.124,5.356-5.409,8.752-6.442c2.116-0.643,4.113-1.25,4.815-2.33  c0.867-1.335,1.121-4.119,1.367-6.812c0.389-4.27,0.791-8.685,3.637-9.899c0.954-0.407,2.088-0.604,3.469-0.604  c3.759,0,8.639,1.542,12.56,2.781c2.478,0.782,4.617,1.458,5.944,1.604c0.279,0.031,0.576,0.046,0.881,0.046  c1.465,0,2.993-0.343,4.611-0.708c1.652-0.372,3.362-0.757,5.048-0.757c1.727,0,3.205,0.407,4.518,1.244  c2.085,1.33,2.441,4.961,2.788,8.474c0.255,2.591,0.544,5.526,1.557,6.322c0.747,0.588,2.099,0.808,3.528,1.042  c2.554,0.416,5.729,0.934,7.56,3.875c1.424,2.291,1.836,4.472,1.223,6.483c-0.427,1.398-1.282,2.478-2.132,3.26l9.972,0.197  c0.325,0.007,0.619,0.197,0.758,0.492c0.138,0.294,0.097,0.643-0.105,0.897L79.313,61.214c2.688,0.349,8.023,1.639,11.696,6.385  c3.229,4.174,3.994,16.901,4.025,17.44c0.013,0.228-0.063,0.45-0.216,0.619c-0.15,0.17-0.363,0.34-0.59,0.352L7.52,91  C7.504,91,7.487,91,7.471,91z M7.264,47.292l12.529,16.76c0.159,0.213,0.21,0.488,0.138,0.744c-0.073,0.258-0.261,0.465-0.508,0.563  c-0.054,0.021-5.368,2.159-7.74,5.267c-2.251,2.95-3.125,13.572-3.324,18.477l84.905-4.82c-0.228-2.915-1.146-12.454-3.609-15.637  c-4.474-5.784-11.938-5.852-12.014-5.852c-0.329,0-0.629-0.188-0.772-0.483c-0.142-0.296-0.103-0.648,0.103-0.905l12.75-16.015  l-10.896-0.215c-0.399-0.008-0.741-0.292-0.82-0.685c-0.081-0.392,0.121-0.787,0.486-0.952c0.026-0.012,2.765-1.287,3.521-3.793  c0.458-1.515,0.106-3.22-1.042-5.069c-1.419-2.28-3.941-2.692-6.381-3.089c-1.654-0.27-3.217-0.524-4.312-1.386  c-1.585-1.247-1.885-4.284-2.201-7.5c-0.292-2.96-0.623-6.316-2.005-7.198c-1.045-0.666-2.188-0.975-3.598-0.975  c-1.495,0-3.038,0.347-4.672,0.715c-1.638,0.369-3.331,0.75-4.987,0.75c-0.367,0-0.726-0.019-1.067-0.057  c-1.496-0.165-3.709-0.864-6.273-1.673c-3.809-1.204-8.55-2.701-12.044-2.701c-1.129,0-2.07,0.157-2.796,0.467  c-1.907,0.813-2.277,4.886-2.605,8.479c-0.276,3.033-0.538,5.899-1.636,7.589c-1.042,1.604-3.33,2.299-5.752,3.036  c-3.304,1.004-6.72,2.042-7.6,5.255c-0.608,2.221,4.033,6.27,7.101,8.3c0.305,0.202,0.448,0.573,0.357,0.927  c-0.091,0.353-0.396,0.61-0.758,0.641L7.264,47.292z"
    />
    <path
        style="stroke: #fff;stroke-width: 5"
        d="M60.307,51.434c0.503,0,0.546,0.167,0.574,0.439c0.25,2.412-4.816,9.503-9.776,10.541c-0.61,0.128-1.197,0.193-1.744,0.193  c-4.05,0-5.605-3.585-6.635-5.957c-0.06-0.14-0.118-0.272-0.174-0.4c-0.296-0.672-0.401-3.064-0.135-3.845  c1.055,0.087,2.271,0.131,3.622,0.131c5.228,0,11.281-0.654,13.868-1.068C60.053,51.445,60.187,51.434,60.307,51.434 M60.306,50.577  c-0.162,0-0.341,0.015-0.533,0.046c-2.824,0.451-8.728,1.058-13.734,1.058c-1.374,0-2.681-0.047-3.837-0.153  c-0.013-0.002-0.026-0.002-0.038-0.002c-1.042,0-0.829,4.084-0.395,5.07c1.043,2.368,2.722,6.867,7.592,6.867  c0.591,0,1.229-0.066,1.919-0.21C57.984,61.848,64.784,50.576,60.306,50.577L60.306,50.577z"
    />
    <path
        style="stroke: #fff;stroke-width: 5"
        d="M23.911,48.612c0.088,0,0.244,0.017,0.483,0.1c2.603,0.9,9.8,2.976,14.675,3.447c0.057,0.729-0.361,2.536-0.769,3.168  l-0.125,0.194c-1.072,1.669-2.692,4.192-5.524,4.192c-0.732,0-1.525-0.17-2.356-0.503c-3.907-1.564-7.07-8.106-6.653-10.266  C23.706,48.612,23.788,48.612,23.911,48.612 M23.911,47.755c-3.228,0,0.766,10.126,6.066,12.25c0.984,0.394,1.873,0.563,2.674,0.563  c3.425,0,5.272-3.079,6.368-4.777c0.636-0.986,1.401-4.379,0.467-4.455c-4.618-0.38-11.854-2.41-14.813-3.433  C24.384,47.803,24.13,47.755,23.911,47.755L23.911,47.755z"
    />
    <path
        style="stroke: #fff;stroke-width: 5"
        d="M26.411,33.558L26.411,33.558c0.483,0,1.107,0.201,1.71,0.552c3.437,1.998,10.827,4.014,19.587,4.014  c6.403,0,12.475-1.124,17.556-3.25c1.707-0.714,2.6-0.842,2.997-0.85c-0.249,0.314-0.791,0.808-1.729,1.247  c-5.754,2.692-12.004,4.057-18.577,4.057c-8.637,0-16.213-2.434-20.424-4.712c-0.832-0.45-1.21-0.831-1.354-1.038  C26.236,33.566,26.314,33.558,26.411,33.558 M26.411,32.702c-1.473,0-1.854,1.276,0.714,2.666  c4.321,2.338,11.951,4.815,20.831,4.815c5.958,0,12.48-1.115,18.94-4.138c2.339-1.095,3.242-2.878,1.407-2.878  c-0.699,0-1.8,0.26-3.369,0.917c-5.52,2.31-11.581,3.185-17.226,3.185c-8.305,0-15.709-1.894-19.156-3.898  C27.744,32.9,26.992,32.702,26.411,32.702L26.411,32.702z"
    />
</svg>